<?xml version="1.0" encoding="UTF-8"?>
<svg width="598px" height="59px" viewBox="0 0 598 59" version="1.1" xmlns="http://www.w3.org/2000/svg" xmlns:xlink="http://www.w3.org/1999/xlink">
    <!-- Generator: Sketch 46.2 (44496) - http://www.bohemiancoding.com/sketch -->
    <title>Combined Shape</title>
    <desc>Created with Sketch.</desc>
    <defs></defs>
    <g id="Page-1" stroke="none" stroke-width="1" fill="none" fill-rule="evenodd">
        <g id="Combined-Shape" fill="#FFFFFF">
            <path d="M329.2887,0.0024 C330.6827,0.0024 331.8157,1.1354 331.8157,2.5284 L331.8157,16.4404 L318.5107,16.4404 L318.5107,11.5104 L297.9107,11.5104 L297.9107,21.5764 L329.8747,29.0824 C331.0167,29.3504 331.8157,30.3574 331.8157,31.5304 L331.8157,56.1224 C331.8157,57.5164 330.6827,58.6494 329.2887,58.6494 L287.1327,58.6494 C285.7397,58.6494 284.6067,57.5164 284.6067,56.1224 L284.6067,42.2114 L297.9107,42.2114 L297.9107,47.1414 L318.5107,47.1414 L318.5107,37.0764 L286.5477,29.5694 C285.4047,29.3014 284.6067,28.2944 284.6067,27.1204 L284.6067,2.5284 C284.6067,1.1354 285.7397,0.0024 287.1327,0.0024 L329.2887,0.0024 Z M458.013,26.0433 L443.32,26.0433 L454.783,0.0023 L469.474,0.0023 L458.013,26.0433 Z M407.5264,0.0024 L422.2434,0.0024 L445.6194,58.6494 L430.9024,58.6494 L407.5264,0.0024 Z M58.312,58.649 L58.312,0.002 L71.616,0.002 L71.616,58.649 L58.312,58.649 Z M166.5557,58.649 L166.5557,11.42 L147.0727,11.42 L147.0727,0.002 L199.2537,0.002 L199.2537,11.42 L179.7697,11.42 L179.7697,58.649 L166.5557,58.649 Z M584.7858,37.2228 L584.7858,0.0028 L597.9998,0.0028 L597.9998,58.6488 L586.8858,58.6488 L555.3508,22.5528 L555.3508,58.6488 L542.0488,58.6488 L542.0488,0.0028 L553.2428,0.0028 L584.7858,37.2228 Z M235.2154,26.0433 L220.5194,26.0433 L209.0594,0.0023 L223.7504,0.0023 L235.2154,26.0433 Z M247.6292,58.649 L232.9142,58.649 L256.2912,0.002 L271.0062,0.002 L247.6292,58.649 Z M393.9267,47.1383 L393.9267,58.6473 L348.9287,58.6473 L348.9287,0.0003 L393.9267,0.0003 L393.9267,11.5083 L362.2317,11.5083 L362.2317,23.5693 L385.2877,23.5693 L385.2877,32.5573 C385.2877,33.9463 384.1567,35.0773 382.7677,35.0773 L362.2317,35.0773 L362.2317,47.1383 L393.9267,47.1383 Z M102.0623,35.0775 L102.0623,58.6475 L88.7603,58.6475 L88.7603,-0.0005 L133.7573,-0.0005 L133.7573,11.5085 L102.0623,11.5085 L102.0623,23.5695 L125.1183,23.5695 L125.1183,32.5575 C125.1183,33.9465 123.9873,35.0775 122.5983,35.0775 L102.0623,35.0775 Z M13.3029,35.0775 L13.3029,58.6475 L-0.0001,58.6475 L-0.0001,-0.0005 L44.9979,-0.0005 L44.9979,11.5085 L13.3029,11.5085 L13.3029,23.5695 L36.3589,23.5695 L36.3589,32.5575 C36.3589,33.9465 35.2279,35.0775 33.8389,35.0775 L13.3029,35.0775 Z M524.9056,47.1383 L524.9056,58.6473 L479.9076,58.6473 L479.9076,0.0003 L524.9056,0.0003 L524.9056,11.5083 L493.2106,11.5083 L493.2106,23.5693 L516.2656,23.5693 L516.2656,32.5573 C516.2656,33.9463 515.1356,35.0773 513.7466,35.0773 L493.2106,35.0773 L493.2106,47.1383 L524.9056,47.1383 Z"></path>
        </g>
    </g>
</svg>